# xmcd
#
# Track frame offsets:
#	150
#	16929
#	29947
#	49654
#	64209
#	84298
#	103305
#	121079
#	139516
#	157338
#	179843
#	196157
#	211801
#
# Disc length: 3139 seconds
#
# Revision: 2
# Processed by: cddbd v1.4b41PL2 Copyright (c) Steve Scherf et al.
# Submitted via: EZCDDA 4.3.2
#
DISCID=ba0c410d
DTITLE=Jerry Jeff Walker - Gonzo Stew
DYEAR=1900
DGENRE=
TTITLE0=It Don't Matter
TTITLE1=Little Old Town Called New Orleans
TTITLE2=Texas On My Mind
TTITLE3=The Cape
TTITLE4=Alright Guy
TTITLE5=Where I Was
TTITLE6=Candles and Cut Flowers
TTITLE7=Every Drop Of Water
TTITLE8=Let the Ponies Run
TTITLE9=She Made Herself a Promise
TTITLE10=The Other Jerry Jeff
TTITLE11=Dang Me
TTITLE12=Down the Road
EXTD=
EXTT0=
EXTT1=
EXTT2=
EXTT3=
EXTT4=
EXTT5=
EXTT6=
EXTT7=
EXTT8=
EXTT9=
EXTT10=
EXTT11=
EXTT12=
PLAYORDER=
